<svg xmlns="http://www.w3.org/2000/svg" viewBox="0 0 16.875 18" aria-hidden="true" class="CollapsibleSection-headerIcon-L8a"><g><g fill="none" stroke="#707070" stroke-linecap="round" stroke-linejoin="round" stroke-width="1.125" transform="translate(.563 .563)"><circle cx="2.25" cy="2.25" r="2.25" transform="translate(5.625 2.813)"></circle><path d="M7.875 0a5.063 5.063 0 0 1 5.063 5.063c0 2.438-3.849 7.9-4.835 9.253a.283.283 0 0 1-.456 0C6.661 12.957 2.813 7.5 2.813 5.062A5.063 5.063 0 0 1 7.875 0Z"></path><path d="M12.359 12.775c2.049.406 3.391 1.083 3.391 1.849 0 1.243-3.525 2.25-7.875 2.25S0 15.867 0 14.624c0-.765 1.336-1.441 3.375-1.847"></path></g></g></svg>