<svg xmlns="http://www.w3.org/2000/svg" viewBox="0 0 18 17.5" class="AssetsCountBadge-icon-iqi"><path d="M5.6,17.5L5.6,17.5C2.5,17.5,0,15,0,11.9c0-1.5,0.6-2.9,1.6-4l6.8-6.8c1.5-1.5,4-1.5,5.6,0s1.5,4,0,5.6l0,0
	l-6.8,6.8c-0.9,0.9-2.3,0.9-3.2,0.1S3.1,11.3,4,10.4c0,0,0,0,0.1-0.1l6.8-6.8c0.2-0.2,0.6-0.2,0.8,0s0.2,0.6,0,0.8l0,0l-6.8,6.8
	c-0.4,0.4-0.5,1.1,0,1.6c0.4,0.4,1.1,0.5,1.6,0c0,0,0,0,0,0l6.8-6.8c1.1-1.1,1.1-2.9,0-4s-2.9-1.1-4,0L2.4,8.7
	c-1.8,1.8-1.8,4.6,0,6.4s4.6,1.8,6.4,0l0,0L17,6.8c0.2-0.2,0.6-0.2,0.8,0c0.2,0.2,0.2,0.6,0,0.8l0,0l-8.2,8.2
	C8.5,16.9,7.1,17.5,5.6,17.5z"></path></svg>