<svg class="BeBaseIcon-icon-xwe CheckmarkOnly-icon-r1s ExploreSortDropdown-checkmark-cYz" xmlns="http://www.w3.org/2000/svg" viewBox="0 0 20 20" aria-hidden="true"><g><!--[--><path fill-rule="evenodd" clip-rule="evenodd" d="M15.1815 5.00829C15.0456 5.02745 14.9265 5.08059 14.8224 5.16862C14.7829 5.202 13.1934 7.10429 11.2901 9.39594C9.38677 11.6876 7.80427 13.5843 7.7734 13.6109C7.70855 13.6667 7.5948 13.6746 7.525 13.6282C7.49935 13.6111 6.97595 12.9187 6.36191 12.0895C5.18911 10.5057 5.14163 10.4493 4.93336 10.3902C4.58264 10.2909 4.21418 10.4466 4.06244 10.7583C3.97967 10.9284 3.97913 11.1588 4.06116 11.3089C4.09302 11.3672 4.61633 12.0865 5.22406 12.9075C6.4055 14.5035 6.52031 14.6403 6.81592 14.8035C6.8967 14.8481 7.04414 14.9106 7.14357 14.9424C7.30574 14.9942 7.35688 15.0001 7.64069 15C7.92742 14.9998 7.97397 14.9943 8.13781 14.9404C8.37365 14.8629 8.59374 14.7377 8.76037 14.5865C8.94584 14.418 15.8615 6.0969 15.939 5.94892C15.9902 5.85118 16.0006 5.80324 16 5.66972C15.9978 5.2456 15.6266 4.94558 15.1815 5.00829Z"></path><!--]--></g></svg>