<svg xmlns="http://www.w3.org/2000/svg" viewBox="0 0 18.001 18.002" aria-hidden="true" class="CollapsibleSection-headerIcon-L8a"><g><g fill="none" stroke="#707070" stroke-width="1.125"><path d="M3.444 16.943a1.687 1.687 0 1 1-2.386-2.386l4.773-4.77 2.386 2.386Z" stroke-linecap="round" stroke-linejoin="round"></path><path d="m13.783 4.177-6.761 6.761" stroke-linecap="round" stroke-linejoin="round"></path><path d="M15.45 4.141a1.125 1.125 0 1 1-1.591-1.591L15.848.563l1.591 1.59Z" stroke-linecap="round" stroke-linejoin="round"></path><g><path d="M7.68 6.091 5.963 4.37a2.811 2.811 0 0 0-.628-3.014 2.781 2.781 0 0 0-1.68-.793A2.245 2.245 0 0 1 .563 3.657a2.791 2.791 0 0 0 3.8 2.3L5.55 7.142" stroke-linecap="round" stroke-linejoin="round"></path><path d="m10.672 12.268 1.329 1.332a2.812 2.812 0 1 0 1.591-1.591l-1.881-1.885" stroke-linecap="round" stroke-linejoin="round"></path><path d="M14.62 14.9a.281.281 0 0 1 0-.562"></path><path d="M14.62 14.9a.281.281 0 1 0 0-.562"></path></g></g></g></svg>