<svg xmlns="http://www.w3.org/2000/svg" viewBox="0 0 198 195" class="StockImageCard-stockLogo-b2g"><g><path class="" d="M35.063 0h127.875A35.211 35.211 0 01198 35.417v124.166A35.211 35.211 0 01162.938 195H35.063A35.211 35.211 0 010 159.583V35.417A35.211 35.211 0 0135.063 0z" fill="#000b1d"></path><path d="M73.593 138.685a66.33 66.33 0 01-13.448-1.238 44.06 44.06 0 01-10.152-3.217c-.743-.33-1.072-1.073-1.072-2.228v-15.84a.9.9 0 01.33-.743.76.76 0 01.825.083 45.524 45.524 0 0011.8 5.2 43.67 43.67 0 0012.21 1.732c5.033 0 8.662-.742 10.808-2.3a6.79 6.79 0 003.217-5.775 7.82 7.82 0 00-1.073-4.042 12.69 12.69 0 00-3.713-3.548 40.16 40.16 0 00-7.342-3.548l-6.683-2.805a51.854 51.854 0 01-12.7-7.343c-2.8-2.2-4.95-5.1-6.27-8.415a27.83 27.83 0 01-1.737-9.735 23.967 23.967 0 0114.2-22.275c4.7-2.228 10.56-3.382 17.572-3.382a82.16 82.16 0 0111.88.825 27.8 27.8 0 018.827 2.557 1.79 1.79 0 01.907 1.732v15.015a.83.83 0 01-.33.577c-.247.248-.495.165-.825-.082-2.95-1.5-6.085-2.6-9.323-3.3a45.37 45.37 0 00-11.054-1.155 28.68 28.68 0 00-6.518.66c-1.502.34-2.947.896-4.3 1.65a6.22 6.22 0 00-2.475 2.557 7.1 7.1 0 00-.825 3.135 6.85 6.85 0 001.155 3.795 12.644 12.644 0 003.96 3.3 83.47 83.47 0 007.673 3.877l4.95 1.9a53.18 53.18 0 0113.695 7.673 23.84 23.84 0 016.931 8.743 26.783 26.783 0 011.98 10.147 23.42 23.42 0 01-4.207 13.777 27.32 27.32 0 01-11.632 9.075 45.83 45.83 0 01-17.241 2.971zm78.124-14.495v10.9c0 1-.33 1.567-1.073 1.733a41.21 41.21 0 01-5.28 1.32 27.51 27.51 0 01-6.352.5c-5.775 0-10.312-1.485-13.53-4.538s-4.95-7.837-4.95-14.437V86.57h-8c-.742 0-1.073-.412-1.073-1.155l.083-13.118c0-.743.412-1.073 1.155-1.073h8c.083-1.485.083-3.135.247-5.115l.5-5.94c.165-1.98.412-3.63.577-4.868.106-.264.244-.514.413-.743a1.29 1.29 0 01.66-.5l15.84-1.98a.91.91 0 01.66 0c.165.083.247.33.247.825a146.7 146.7 0 00-.413 8.332l-.165 10.065h11.715c.5 0 .825.33.825 1.073l-.083 13.365a.817.817 0 01-.66.908h-11.718v28.628c0 2.97.33 5.2 1.32 6.435s2.888 1.9 5.6 1.9a18.4 18.4 0 002.227-.083c.66-.083 1.4-.083 2.145-.165a.8.8 0 01.742.083c.248.086.33.333.33.746z" fill="#fff"></path></g></svg>