<svg xmlns="http://www.w3.org/2000/svg" viewBox="0 0 18.053 18" aria-hidden="true" class="CollapsibleSection-headerIcon-L8a"><g><g fill="none" stroke="#707070" stroke-linecap="round" stroke-linejoin="round" stroke-width="1.125" transform="translate(.603 .563)"><rect width="6.75" height="6.75" rx=".75"></rect><circle cx="3.375" cy="3.375" r="3.375" transform="translate(10.125)"></circle><path d="M13.527 9.92a.665.665 0 0 0-1.179 0l-3.252 5.855a.77.77 0 0 0-.005.732.679.679 0 0 0 .595.368h6.505a.679.679 0 0 0 .595-.368.77.77 0 0 0-.005-.732Z"></path><path d="M3.826 9.213a.584.584 0 0 0-.9 0L.144 12.537a.62.62 0 0 0 0 .794l2.781 3.328a.583.583 0 0 0 .9 0l2.781-3.322a.62.62 0 0 0 0-.794Z"></path></g></g></svg>