<svg class="BeBaseIcon-icon-xwe Uptick-icon-m_Q ProjectCoverBoostUpsell-icon-FVa" xmlns="http://www.w3.org/2000/svg" viewBox="0 0 41 40" aria-hidden="true"><g><path fill-rule="evenodd" clip-rule="evenodd" d="M26.8311 10.625C26.8311 10.0727 27.2788 9.625 27.8311 9.625H38.3779C38.9302 9.625 39.3779 10.0727 39.3779 10.625V21.1719C39.3779 21.7242 38.9302 22.1719 38.3779 22.1719C37.8256 22.1719 37.3779 21.7242 37.3779 21.1719V13.0392L26.6806 23.7366C26.6805 23.7366 26.6804 23.7367 26.6803 23.7368C26.3699 24.0474 26.0012 24.2938 25.5955 24.462C25.1897 24.6301 24.7547 24.7167 24.3154 24.7167C23.8761 24.7167 23.4412 24.6301 23.0353 24.462C22.6296 24.2938 22.261 24.0474 21.9505 23.7368C21.9504 23.7367 21.9504 23.7366 21.9503 23.7366L17.063 18.8493L17.0628 18.8491C16.938 18.7242 16.7898 18.6251 16.6267 18.5576C16.4636 18.49 16.2888 18.4552 16.1123 18.4552C15.9358 18.4552 15.761 18.49 15.5979 18.5576C15.4348 18.6251 15.2866 18.7242 15.1618 18.8491L15.1616 18.8493L3.92879 30.0821C3.53826 30.4726 2.9051 30.4726 2.51457 30.0821C2.12405 29.6916 2.12405 29.0584 2.51457 28.6679L13.7472 17.4353C14.0577 17.1246 14.4264 16.8781 14.8322 16.7099C15.238 16.5417 15.673 16.4552 16.1123 16.4552C16.5516 16.4552 16.9866 16.5417 17.3924 16.7099C17.7982 16.8781 18.1669 17.1246 18.4775 17.4353L23.3647 22.3226L23.365 22.3228C23.4897 22.4477 23.6379 22.5467 23.801 22.6143C23.9641 22.6819 24.1389 22.7167 24.3154 22.7167C24.492 22.7167 24.6668 22.6819 24.8299 22.6143C24.9929 22.5467 25.1411 22.4477 25.2659 22.3228L25.2661 22.3226L35.9637 11.625H27.8311C27.2788 11.625 26.8311 11.1773 26.8311 10.625Z" fill="url(#paint0_linear_262_3643)"></path><defs><linearGradient id="paint0_linear_262_3643" x1="0.873047" y1="20.315" x2="17.7391" y2="-9.88635" gradientUnits="userSpaceOnUse"><stop class="Uptick-startStop-b08"></stop><stop class="Uptick-middleStop-y7V" offset="0.493"></stop><stop class="Uptick-endStop-Z__" offset="1"></stop></linearGradient></defs></g></svg>